<?xml version="1.0" standalone="no"?>
<!DOCTYPE svg PUBLIC "-//W3C//DTD SVG 20010904//EN"
 "http://www.w3.org/TR/2001/REC-SVG-20010904/DTD/svg10.dtd">
<svg version="1.0" xmlns="http://www.w3.org/2000/svg"
 width="512.000000pt" height="512.000000pt" viewBox="0 0 512.000000 512.000000"
 preserveAspectRatio="xMidYMid meet">

<g transform="translate(0.000000,512.000000) scale(0.100000,-0.100000)"
fill="#000000" stroke="none">
<path d="M2470 4919 c-111 -22 -162 -59 -405 -299 -126 -125 -241 -234 -255
-241 -19 -11 -103 -15 -375 -19 l-350 -5 -68 -32 c-93 -44 -169 -119 -215
-212 l-37 -75 -5 -350 c-4 -273 -8 -357 -19 -376 -7 -14 -116 -128 -241 -255
-190 -193 -232 -241 -259 -295 -64 -132 -64 -268 0 -400 27 -54 69 -102 259
-295 125 -126 234 -241 241 -255 11 -19 15 -103 19 -376 l5 -350 37 -75 c46
-93 122 -168 215 -212 l68 -32 350 -5 c272 -4 356 -8 375 -19 14 -7 129 -116
255 -241 193 -190 241 -232 295 -259 131 -64 268 -64 400 0 55 27 102 68 295
259 127 125 241 234 255 241 19 11 104 15 375 19 l350 5 68 32 c93 44 169 119
215 212 l37 75 5 350 c4 273 8 357 19 376 7 14 116 129 241 255 190 193 232
241 259 295 64 132 64 268 0 400 -27 54 -69 102 -259 295 -125 127 -234 241
-241 255 -11 19 -15 103 -19 376 l-5 350 -37 75 c-46 93 -122 168 -215 212
l-68 32 -350 5 c-271 4 -356 8 -375 19 -14 7 -128 116 -255 241 -193 191 -240
232 -295 258 -99 48 -188 61 -290 41z m170 -250 c31 -14 113 -88 275 -248 251
-248 281 -270 406 -290 35 -6 195 -11 356 -11 181 0 302 -4 320 -11 38 -14 92
-67 109 -106 11 -25 14 -98 14 -325 0 -161 5 -322 11 -357 20 -125 42 -155
290 -406 236 -239 269 -282 269 -355 0 -73 -33 -116 -269 -355 -248 -251 -270
-281 -290 -406 -6 -35 -11 -195 -11 -356 0 -181 -4 -302 -11 -320 -14 -38 -67
-92 -106 -109 -25 -11 -98 -14 -325 -14 -161 0 -322 -5 -357 -11 -125 -20
-155 -42 -406 -290 -239 -236 -282 -269 -355 -269 -73 0 -116 33 -355 269
-251 248 -281 270 -406 290 -35 6 -196 11 -357 11 -227 0 -300 3 -325 14 -39
17 -92 71 -106 109 -7 18 -11 139 -11 320 0 161 -5 321 -11 356 -20 125 -42
155 -290 406 -236 239 -269 282 -269 355 0 73 33 116 269 355 248 251 270 281
290 406 6 35 11 196 11 357 0 227 3 300 14 325 17 39 71 92 109 106 18 7 139
11 320 11 161 0 321 5 356 11 125 20 155 42 406 290 239 236 282 269 355 269
19 0 55 -10 80 -21z"/>
<path d="M1923 3246 c-166 -54 -294 -259 -297 -476 -1 -74 3 -92 27 -142 53
-108 167 -180 321 -201 l86 -11 0 -138 c0 -120 19 -326 37 -397 6 -23 8 -24
79 -18 132 12 301 53 297 73 -1 6 -11 55 -22 110 -45 225 -54 314 -56 569 -3
268 -11 330 -59 438 -33 75 -104 149 -169 178 -64 27 -183 35 -244 15z m148
-362 c25 -8 61 -27 80 -43 l34 -29 -36 -7 c-20 -4 -87 -5 -148 -3 -126 3 -150
14 -128 58 24 49 95 57 198 24z"/>
<path d="M2932 3242 c-134 -48 -237 -191 -279 -387 -47 -225 86 -393 341 -428
l86 -11 0 -133 c0 -115 17 -306 36 -397 l6 -29 82 7 c80 7 246 41 277 57 15 7
14 15 -2 91 -46 208 -62 356 -64 618 -2 227 -5 263 -24 329 -12 40 -31 91 -42
113 -32 63 -104 133 -162 159 -72 31 -184 36 -255 11z m159 -358 c25 -8 61
-27 80 -43 l34 -29 -36 -7 c-20 -4 -87 -5 -148 -3 -126 3 -150 14 -128 58 24
49 95 57 198 24z"/>
</g>
</svg>
