<?xml version="1.0" standalone="no"?>
<!DOCTYPE svg PUBLIC "-//W3C//DTD SVG 20010904//EN"
 "http://www.w3.org/TR/2001/REC-SVG-20010904/DTD/svg10.dtd">
<svg version="1.0" xmlns="http://www.w3.org/2000/svg"
 width="512.000000pt" height="512.000000pt" viewBox="0 0 512.000000 512.000000"
 preserveAspectRatio="xMidYMid meet">

<g transform="translate(0.000000,512.000000) scale(0.100000,-0.100000)"
fill="#000000" stroke="none">
<path d="M980 4356 c-224 -64 -435 -276 -580 -579 -255 -533 -246 -1203 23
-1731 157 -310 381 -509 613 -546 420 -67 851 456 949 1151 20 146 21 410 1
551 -77 541 -372 1020 -704 1140 -71 26 -234 34 -302 14z"/>
<path d="M1662 4326 c357 -292 627 -1047 569 -1591 -48 -443 -230 -835 -535
-1148 -47 -49 -86 -91 -86 -93 0 -2 76 -4 169 -4 l169 0 67 71 c264 281 449
646 522 1034 24 128 24 467 0 625 -48 312 -154 597 -310 830 -51 77 -159 210
-195 243 -21 20 -216 60 -352 73 l-75 7 57 -47z"/>
<path d="M2390 4232 c400 -313 910 -819 1265 -1255 l80 -97 123 122 c152 151
283 294 386 422 88 109 246 327 246 339 1 42 -836 261 -1470 386 -229 45 -613
111 -645 111 -17 0 -14 -5 15 -28z"/>
<path d="M2573 3820 c3 -8 26 -64 51 -125 116 -283 162 -544 153 -869 -5 -215
-25 -338 -84 -521 -38 -119 -128 -317 -184 -405 -19 -30 -39 -62 -44 -69 -11
-18 70 43 295 224 266 214 788 660 789 676 1 9 -242 311 -367 456 -202 236
-625 675 -609 633z"/>
<path d="M4590 3513 c-161 -228 -360 -460 -583 -681 l-133 -133 142 -215 c151
-227 319 -501 429 -699 37 -66 71 -124 76 -130 11 -11 84 57 134 126 107 144
194 395 229 659 60 456 -7 892 -176 1138 -16 23 -32 42 -36 42 -4 -1 -41 -49
-82 -107z"/>
<path d="M3630 2498 c-215 -195 -728 -608 -1053 -848 -107 -80 -196 -148 -196
-152 -1 -11 277 -10 692 3 197 6 360 9 362 7 5 -5 -655 -883 -662 -881 -3 1
-128 194 -277 430 l-272 428 -134 0 -133 0 -384 -500 c-218 -285 -388 -515
-394 -535 -14 -46 1 -84 43 -110 51 -31 95 -26 132 13 17 19 189 241 381 495
193 253 352 461 355 461 4 0 536 -833 610 -956 21 -35 65 -49 112 -36 19 6
119 131 394 496 202 268 368 486 369 485 2 -2 136 -212 299 -468 164 -256 311
-478 328 -494 28 -25 36 -28 81 -23 70 6 101 41 95 106 -4 40 -50 116 -336
561 -309 481 -330 516 -314 531 13 12 73 21 257 38 291 26 298 28 290 49 -3
10 -65 121 -137 247 -113 199 -423 685 -445 698 -5 3 -33 -18 -63 -45z"/>
</g>
</svg>
