<?xml version="1.0" standalone="no"?>
<!DOCTYPE svg PUBLIC "-//W3C//DTD SVG 20010904//EN"
 "http://www.w3.org/TR/2001/REC-SVG-20010904/DTD/svg10.dtd">
<svg version="1.0" xmlns="http://www.w3.org/2000/svg"
 width="512.000000pt" height="512.000000pt" viewBox="0 0 512.000000 512.000000"
 preserveAspectRatio="xMidYMid meet">

<g transform="translate(0.000000,512.000000) scale(0.100000,-0.100000)"
fill="#000000" stroke="none">
<path d="M2275 4674 c-751 -102 -1406 -613 -1692 -1318 -103 -255 -153 -515
-153 -796 0 -531 184 -1010 545 -1422 304 -347 735 -587 1220 -679 155 -30
465 -37 631 -15 962 126 1724 886 1849 1842 19 147 19 401 0 548 -125 953
-888 1716 -1841 1841 -141 18 -421 18 -559 -1z m-465 -1082 c102 -63 137 -194
75 -283 -42 -59 -102 -100 -159 -106 -93 -11 -200 69 -227 171 -16 59 8 129
63 183 79 77 160 89 248 35z m1735 -16 c51 -39 79 -104 73 -170 -4 -46 -37
-105 -341 -612 -185 -309 -337 -568 -337 -576 0 -8 -10 -24 -22 -35 -13 -11
-271 -169 -575 -351 -383 -229 -564 -332 -593 -337 -95 -16 -202 43 -236 130
-36 95 -41 85 331 705 186 311 347 574 359 586 21 21 1073 654 1130 680 20 9
57 13 102 12 60 -3 76 -8 109 -32z m-46 -1682 c60 -30 105 -85 122 -148 34
-127 -120 -281 -248 -247 -90 24 -173 125 -173 208 0 100 112 213 211 213 19
0 59 -12 88 -26z"/>
</g>
</svg>
