<?xml version="1.0" standalone="no"?>
<!DOCTYPE svg PUBLIC "-//W3C//DTD SVG 20010904//EN"
 "http://www.w3.org/TR/2001/REC-SVG-20010904/DTD/svg10.dtd">
<svg version="1.0" xmlns="http://www.w3.org/2000/svg"
 width="512.000000pt" height="512.000000pt" viewBox="0 0 512.000000 512.000000"
 preserveAspectRatio="xMidYMid meet">

<g transform="translate(0.000000,512.000000) scale(0.100000,-0.100000)"
fill="#000000" stroke="none">
<path d="M2085 4899 c-148 -22 -276 -89 -386 -198 -196 -197 -250 -446 -162
-751 47 -165 160 -357 272 -465 22 -21 41 -42 41 -46 0 -4 -20 -19 -45 -33
-182 -107 -332 -337 -359 -551 -6 -51 -146 -1649 -146 -1672 0 -10 109 -13
510 -13 l510 0 16 -25 c15 -23 15 -27 0 -50 l-16 -25 -463 0 c-515 0 -523 -1
-651 -67 -58 -30 -104 -70 -243 -208 -120 -119 -178 -183 -192 -215 -25 -55
-28 -152 -6 -204 22 -53 83 -116 135 -140 45 -21 48 -21 1517 -24 1620 -3
1551 -5 1680 58 117 58 224 192 259 324 18 68 18 188 -1 261 -23 88 -62 153
-135 225 -60 59 -103 85 -490 295 -251 136 -442 246 -467 269 -23 21 -54 62
-68 91 l-26 53 -70 -43 c-38 -23 -111 -56 -162 -73 -413 -137 -850 46 -1038
434 -62 129 -79 211 -79 394 0 108 4 160 12 168 16 16 63 15 76 0 5 -7 12 -87
14 -178 4 -148 7 -173 32 -245 83 -241 268 -417 513 -487 62 -18 103 -22 203
-22 115 0 133 3 224 34 112 38 80 17 673 429 241 167 462 326 491 355 78 75
108 144 137 316 14 80 25 162 25 183 0 112 -98 207 -212 207 -71 0 -97 -14
-268 -151 -80 -64 -159 -124 -176 -132 -17 -9 -249 -88 -515 -176 -510 -168
-512 -169 -525 -115 -11 44 18 61 235 130 113 37 208 68 210 70 11 10 -25 125
-64 202 -72 143 -194 270 -322 337 -21 10 -40 20 -41 21 -2 2 27 39 66 84 176
207 265 439 266 690 0 111 -3 134 -28 205 -46 134 -118 239 -221 325 -60 50
-189 114 -267 134 -77 20 -200 27 -273 15z m575 -767 c0 -43 -38 -168 -74
-248 -95 -204 -245 -347 -379 -361 -143 -14 -309 129 -418 361 -37 80 -79 216
-79 258 0 17 20 18 475 18 l475 0 0 -28z m1325 -1220 c-12 -70 -29 -141 -38
-157 -16 -32 -53 -69 -103 -103 l-30 -21 -54 90 c-50 86 -52 91 -34 103 10 8
75 59 144 115 69 55 128 100 131 101 4 0 -4 -58 -16 -128z m-2595 -2277 l0
-205 -203 0 c-208 0 -227 3 -227 40 0 22 307 324 355 349 78 40 75 47 75 -184z"/>
</g>
</svg>
