<?xml version="1.0" standalone="no"?>
<!DOCTYPE svg PUBLIC "-//W3C//DTD SVG 20010904//EN"
 "http://www.w3.org/TR/2001/REC-SVG-20010904/DTD/svg10.dtd">
<svg version="1.0" xmlns="http://www.w3.org/2000/svg"
 width="512.000000pt" height="512.000000pt" viewBox="0 0 512.000000 512.000000"
 preserveAspectRatio="xMidYMid meet">

<g transform="translate(0.000000,512.000000) scale(0.100000,-0.100000)"
fill="#000000" stroke="none">
<path d="M1520 4776 c-183 -52 -326 -190 -383 -371 l-22 -70 0 -1580 c0 -1505
1 -1583 18 -1640 57 -185 191 -320 377 -381 50 -16 109 -18 613 -22 l557 -3 0
-168 c0 -162 1 -168 23 -189 28 -27 77 -29 105 -4 11 9 63 72 116 140 54 67
100 122 104 122 4 -1 47 -52 96 -115 121 -157 129 -165 166 -165 77 0 90 34
90 231 l0 148 290 3 c286 3 290 3 312 26 l23 23 0 1995 0 1996 -24 19 c-23 18
-56 19 -1220 18 -933 -1 -1206 -4 -1241 -13z m2330 -1556 l0 -1410 -1107 0
c-716 0 -1131 -4 -1173 -11 -78 -12 -175 -55 -248 -110 l-52 -40 2 1338 3
1338 23 58 c45 109 129 192 235 228 49 17 121 18 1185 19 l1132 0 0 -1410z
m-5 -1960 l0 -385 -232 -3 -233 -2 0 70 0 70 134 0 c133 0 135 0 155 26 28 35
26 67 -3 101 l-24 28 -826 0 -825 0 -23 -22 c-27 -28 -30 -86 -5 -111 16 -15
53 -18 365 -22 l347 -5 0 -65 0 -65 -500 -3 c-312 -1 -526 1 -568 8 -168 26
-295 148 -327 315 -38 196 104 406 300 444 25 5 545 8 1155 7 l1110 -1 0 -385z
m-630 -320 l0 -65 -187 -3 -188 -2 0 70 0 70 188 -2 187 -3 0 -65z m-334 -248
c-5 -10 -17 -24 -25 -32 -14 -11 -16 -8 -16 19 0 27 4 31 25 31 22 0 24 -3 16
-18z m339 -18 c0 -39 -9 -38 -40 6 l-21 30 30 0 c29 0 31 -3 31 -36z"/>
<path d="M2510 4427 c-127 -43 -223 -125 -281 -239 l-29 -58 -153 0 c-140 0
-155 -2 -175 -20 l-22 -21 0 -844 0 -844 26 -20 c24 -19 40 -21 175 -21 l149
0 26 -52 c65 -127 209 -233 354 -259 199 -35 413 69 508 249 l33 62 149 0
c143 0 150 1 177 24 l28 24 3 819 c1 450 0 828 -3 841 -3 12 -14 31 -25 42
-18 18 -34 20 -172 20 l-153 0 -30 58 c-57 111 -178 210 -304 248 -72 22 -204
18 -281 -9z m260 -152 c91 -32 166 -110 202 -207 33 -92 45 -98 209 -98 l139
0 0 -725 0 -725 -145 0 c-142 0 -147 -1 -170 -25 -14 -13 -25 -31 -25 -40 0
-34 -56 -129 -97 -165 -120 -105 -270 -116 -405 -31 -57 37 -101 95 -130 173
-30 85 -38 88 -200 88 l-138 0 0 725 0 725 130 0 c167 0 180 6 210 95 33 100
119 185 220 216 43 13 156 10 200 -6z"/>
</g>
</svg>
