<?xml version="1.0" standalone="no"?>
<!DOCTYPE svg PUBLIC "-//W3C//DTD SVG 20010904//EN"
 "http://www.w3.org/TR/2001/REC-SVG-20010904/DTD/svg10.dtd">
<svg version="1.0" xmlns="http://www.w3.org/2000/svg"
 width="512.000000pt" height="512.000000pt" viewBox="0 0 512.000000 512.000000"
 preserveAspectRatio="xMidYMid meet">

<g transform="translate(0.000000,512.000000) scale(0.100000,-0.100000)"
fill="#000000" stroke="none">
<path d="M2240 4141 c0 -336 2 -401 14 -401 13 0 2526 -364 2594 -375 l32 -6
0 198 c-1 213 -7 245 -54 308 -15 19 -46 45 -69 59 -30 17 -378 105 -1252 316
-665 160 -1222 294 -1237 297 l-28 6 0 -402z"/>
<path d="M1210 4234 c-623 -217 -854 -302 -880 -323 -19 -15 -46 -48 -60 -72
-24 -43 -25 -50 -28 -271 -2 -126 0 -228 5 -228 4 0 419 91 921 202 l912 202
0 393 c0 308 -3 393 -12 392 -7 0 -393 -133 -858 -295z"/>
<path d="M1170 3391 c-492 -109 -903 -201 -912 -206 -16 -6 -18 -28 -18 -236
0 -126 3 -229 8 -229 4 0 416 18 917 40 501 22 911 40 913 40 1 0 2 70 2 155
l0 154 -93 -6 c-93 -6 -93 -6 -115 22 -27 34 -29 86 -3 109 15 14 159 45 214
46 4 0 7 70 7 155 0 118 -3 155 -12 154 -7 0 -416 -90 -908 -198z m571 -200
c42 -42 36 -96 -13 -122 -31 -17 -279 -48 -304 -38 -51 19 -71 92 -35 128 11
11 39 22 63 26 125 19 225 33 241 34 10 0 32 -12 48 -28z m-472 -67 c27 -35
26 -66 -2 -100 -22 -25 -36 -29 -148 -45 -165 -24 -175 -23 -204 6 -30 29 -33
73 -6 106 16 19 37 26 132 40 171 26 203 25 228 -7z m-488 -53 c30 -31 36 -59
19 -91 -17 -32 -47 -41 -184 -60 -144 -20 -169 -16 -195 31 -18 33 -8 74 24
95 20 13 207 47 288 53 10 0 32 -12 48 -28z"/>
<path d="M2240 3425 c0 -113 3 -155 12 -155 6 0 63 -5 126 -12 96 -9 119 -15
143 -35 39 -34 40 -83 2 -113 -29 -23 -57 -24 -227 -4 l-56 7 0 -157 c0 -86 3
-156 8 -156 4 0 594 -18 1312 -40 718 -22 1308 -40 1313 -40 4 0 7 36 7 80 0
76 -1 80 -22 80 -13 0 -81 7 -151 14 -147 16 -167 26 -167 87 0 29 6 43 28 59
25 20 35 22 114 16 48 -3 112 -9 143 -12 l55 -7 0 81 0 81 -32 6 c-70 12
-2580 375 -2594 375 -11 0 -14 -27 -14 -155z m627 -208 c131 -15 153 -28 153
-89 0 -53 -27 -78 -82 -77 -110 1 -279 25 -295 42 -24 24 -23 89 1 116 23 25
57 26 223 8z m481 -41 c90 -11 118 -18 134 -34 29 -28 26 -78 -6 -110 l-25
-25 -148 13 c-141 12 -149 14 -176 42 -24 24 -28 34 -23 61 13 69 46 76 244
53z m479 -39 c130 -15 153 -28 153 -87 0 -26 -7 -43 -25 -60 l-25 -23 -142 12
c-85 8 -152 19 -165 27 -36 23 -46 50 -33 89 20 60 41 63 237 42z m545 -56
c61 -10 88 -34 88 -78 0 -40 -37 -83 -72 -83 -13 0 -81 7 -153 14 -119 13
-131 16 -152 40 -28 33 -29 51 -2 95 l20 34 112 -7 c62 -4 133 -11 159 -15z"/>
<path d="M1140 2599 c-459 -20 -850 -38 -867 -38 l-33 -1 0 -480 c0 -264 3
-480 8 -480 4 0 416 -18 917 -40 501 -22 911 -40 913 -40 1 0 2 252 2 560 l0
560 -52 -1 c-29 -1 -429 -19 -888 -40z"/>
<path d="M2240 2080 c0 -441 3 -560 13 -560 6 0 599 18 1317 40 718 22 1306
40 1308 40 1 0 2 216 2 480 0 264 -1 480 -2 480 -2 0 -590 18 -1308 40 -718
22 -1311 40 -1317 40 -10 0 -13 -119 -13 -560z"/>
<path d="M242 1158 l3 -283 28 -47 c34 -59 101 -106 170 -119 28 -6 385 -39
792 -75 407 -35 764 -67 793 -70 l52 -6 0 401 c0 220 -1 401 -2 401 -2 0 -412
18 -913 40 -501 22 -914 40 -918 40 -5 0 -7 -127 -5 -282z"/>
<path d="M3525 1399 c-660 -21 -1219 -38 -1242 -38 l-43 -1 0 -395 c0 -392 0
-395 21 -395 11 0 282 16 602 35 320 19 850 50 1177 70 327 19 612 37 633 40
85 12 172 85 195 164 8 25 12 130 12 300 l0 261 -77 -1 c-43 -1 -618 -19
-1278 -40z"/>
</g>
</svg>
