<?xml version="1.0" standalone="no"?>
<!DOCTYPE svg PUBLIC "-//W3C//DTD SVG 20010904//EN"
 "http://www.w3.org/TR/2001/REC-SVG-20010904/DTD/svg10.dtd">
<svg version="1.0" xmlns="http://www.w3.org/2000/svg"
 width="512.000000pt" height="512.000000pt" viewBox="0 0 512.000000 512.000000"
 preserveAspectRatio="xMidYMid meet">

<g transform="translate(0.000000,512.000000) scale(0.100000,-0.100000)"
fill="#000000" stroke="none">
<path d="M1028 5105 c-494 -81 -880 -451 -985 -946 -24 -115 -24 -343 0 -458
151 -712 868 -1126 1553 -896 292 98 544 320 683 602 222 450 134 994 -219
1354 -170 173 -372 283 -612 335 -104 22 -313 27 -420 9z m412 -285 c318 -82
562 -319 656 -637 32 -108 43 -285 25 -399 -31 -189 -122 -367 -260 -505 -255
-255 -628 -335 -974 -209 -226 83 -437 288 -527 514 -51 126 -64 198 -64 346
0 146 13 220 61 339 100 252 321 456 587 541 139 45 346 49 496 10z"/>
<path d="M3780 5114 c-252 -36 -422 -104 -602 -239 -297 -224 -468 -568 -468
-945 0 -377 171 -721 468 -945 552 -415 1327 -285 1708 285 139 209 198 405
198 660 0 327 -117 611 -345 839 -183 182 -414 298 -669 337 -87 13 -228 17
-290 8z m329 -289 c157 -38 294 -113 413 -224 132 -124 223 -275 269 -446 31
-114 31 -336 0 -450 -126 -469 -582 -762 -1056 -680 -375 66 -677 369 -744
749 -24 131 -11 304 31 436 106 334 393 575 753 634 56 9 270 -3 334 -19z"/>
<path d="M1035 2369 c-96 -14 -233 -57 -332 -104 -288 -136 -515 -388 -616
-685 -47 -136 -62 -233 -61 -390 0 -318 107 -586 321 -811 300 -315 743 -445
1157 -339 529 135 896 608 896 1154 0 658 -538 1192 -1194 1185 -61 -1 -138
-5 -171 -10z m331 -270 c276 -48 529 -231 654 -470 86 -166 116 -300 107 -487
-18 -402 -290 -736 -687 -843 -119 -32 -316 -32 -444 -1 -97 24 -228 82 -301
132 -72 49 -182 157 -231 225 -360 506 -130 1212 460 1410 41 14 98 29 128 34
76 12 244 13 314 0z"/>
<path d="M3695 2364 c-462 -82 -829 -422 -952 -881 -24 -88 -27 -116 -27 -283
-1 -194 3 -225 51 -375 106 -330 357 -601 680 -732 641 -262 1368 76 1582 736
42 127 56 220 55 371 0 318 -118 603 -343 828 -183 184 -425 306 -675 341
-104 15 -273 12 -371 -5z m445 -284 c297 -84 533 -308 629 -595 76 -230 63
-471 -39 -684 -55 -114 -113 -193 -208 -282 -120 -112 -255 -185 -418 -226
-95 -23 -303 -23 -404 1 -375 88 -651 380 -711 751 -15 93 -6 296 15 376 95
345 365 599 716 674 96 21 322 13 420 -15z"/>
</g>
</svg>
