<?xml version="1.0" standalone="no"?>
<!DOCTYPE svg PUBLIC "-//W3C//DTD SVG 20010904//EN"
 "http://www.w3.org/TR/2001/REC-SVG-20010904/DTD/svg10.dtd">
<svg version="1.0" xmlns="http://www.w3.org/2000/svg"
 width="512.000000pt" height="512.000000pt" viewBox="0 0 512.000000 512.000000"
 preserveAspectRatio="xMidYMid meet">

<g transform="translate(0.000000,512.000000) scale(0.100000,-0.100000)"
fill="#000000" stroke="none">
<path d="M806 4118 c-22 -19 -63 -143 -256 -765 -126 -408 -230 -751 -230
-761 0 -53 -6 -51 950 -322 503 -142 932 -264 952 -270 53 -15 94 -53 114
-106 9 -25 26 -50 36 -55 24 -13 354 -12 376 0 9 5 27 33 41 62 15 29 37 61
52 71 14 11 450 139 974 288 994 281 985 278 985 332 0 10 -104 353 -230 761
-193 622 -234 746 -256 765 -33 29 -44 28 -136 -9 -74 -30 -76 -31 -68 -57 85
-258 344 -1119 348 -1155 5 -56 -17 -122 -56 -169 -34 -40 -129 -84 -318 -147
-293 -98 -494 -137 -769 -152 -219 -11 -299 -28 -417 -91 -42 -23 -105 -67
-140 -98 -88 -79 -120 -94 -198 -94 -78 0 -113 17 -213 103 -139 121 -274 165
-545 180 -269 15 -497 61 -782 157 -177 60 -269 103 -302 142 -39 47 -61 113
-56 169 3 27 78 284 168 573 89 289 168 544 175 567 l13 42 -77 30 c-91 37
-102 38 -135 9z"/>
<path d="M1218 4109 c-10 -5 -22 -19 -28 -29 -17 -31 -370 -1182 -370 -1206 0
-33 38 -59 140 -97 282 -105 643 -187 821 -187 271 0 483 -65 645 -196 l54
-44 0 745 0 745 -92 44 c-154 75 -212 87 -463 96 -285 11 -471 48 -617 121
-42 21 -65 23 -90 8z"/>
<path d="M3819 4105 c-69 -38 -223 -85 -347 -106 -31 -5 -156 -14 -277 -18
-249 -10 -327 -26 -475 -101 l-80 -40 0 -745 0 -745 63 51 c81 66 220 133 327
158 51 12 142 23 225 26 302 13 585 73 905 192 102 38 140 64 140 97 0 23
-354 1175 -370 1206 -21 40 -66 50 -111 25z"/>
<path d="M1530 1907 c0 -69 -4 -136 -9 -149 -5 -13 -98 -106 -206 -208 -117
-110 -205 -201 -217 -225 -31 -59 -37 -226 -10 -274 25 -46 76 -74 124 -68 27
4 192 100 587 344 303 186 550 341 551 344 0 4 -11 10 -25 13 -38 10 -106 75
-126 122 l-18 40 -313 89 c-172 48 -319 90 -325 92 -10 4 -13 -24 -13 -120z"/>
<path d="M3257 1936 l-318 -91 -18 -40 c-21 -46 -89 -112 -126 -121 -14 -3
-25 -9 -24 -13 0 -3 247 -158 550 -344 395 -244 560 -340 587 -344 48 -6 99
22 124 68 27 48 21 215 -10 274 -12 24 -100 115 -217 225 -108 102 -201 195
-206 208 -5 13 -9 79 -9 148 0 68 -3 124 -7 123 -5 -1 -151 -42 -326 -93z"/>
</g>
</svg>
